<?xml version="1.0" encoding="utf-8" ?>
<svg baseProfile="full" height="150" version="1.1" width="500" xmlns="http://www.w3.org/2000/svg" xmlns:ev="http://www.w3.org/2001/xml-events" xmlns:xlink="http://www.w3.org/1999/xlink"><defs /><polyline fill="none" points="148,93 148,94 148,96 148,98 149,100 149,101 149,103 150,104 150,105 151,106 151,107 152,108 152,109 151,109 151,108 150,107 149,105 149,104 148,103 148,102 147,100 147,99 147,97 146,95 146,94 146,92 146,90 146,89 146,88 146,87 146,85 146,84 146,82 146,80 146,79 147,78 147,76 148,75 149,74 150,73 151,72 152,72 153,71 154,71 155,71 156,71 157,71 158,71 159,72 159,73 160,73 160,74 160,75 160,76 160,77 160,78 160,79 159,81 158,82 157,83 156,84 155,85 154,86 153,87 152,88 151,89 149,90 148,91 147,92 146,92 146,93 147,92 148,91 148,90 149,90 150,89 151,89" stroke="black" stroke-width="2" /><polyline fill="none" points="159,87 160,88 160,89 161,90 162,91 163,91 164,91 165,91 167,91 168,91 169,90 170,90 171,89 172,88 173,87 173,86 174,86 174,85 174,84 174,83 174,82 174,80 174,79 174,78 173,77 173,76 172,76 172,75 171,75 170,75 169,76 168,76 168,77 167,78 166,79 165,80 165,81 164,82 163,83 163,84 162,86 161,87 161,88 162,88 163,87 164,87 165,86 167,85 168,85 169,85 170,84 171,84 172,84 173,84 174,85 174,86 175,87 176,88 176,89 176,90 177,90 177,91 177,92 178,92 180,92 181,92 182,91 183,91 184,90 185,89 186,88 187,87 188,86 189,85 190,83 190,82 191,81 191,79 192,77 193,76 194,74 195,72 196,70 197,67 197,65 198,63 199,61 199,59 200,58 200,56 201,54 201,53 201,52 201,51 201,50 201,51 200,52 200,53 199,54 199,55 199,57 199,58 198,60 198,61 198,63 198,65 197,66 197,68 197,69 197,70 197,71 197,73 197,74 197,76 196,78 196,79 196,80 196,81 196,82 196,83 196,82 195,81 194,80" stroke="black" stroke-width="2" /><polyline fill="none" points="186,69 188,69 189,69 191,69 192,69 193,69 195,69 196,69 197,69 199,69 200,69 201,69 202,69 203,69 204,69 205,69" stroke="black" stroke-width="2" /><polyline fill="none" points="207,76 207,77 207,78 207,79 207,80 207,82 207,83 207,85 207,86 207,87 207,88 207,89 207,90 207,91 207,92 207,91 207,90 207,89 207,88 207,87 207,86 207,83 207,82 208,81 208,80 208,79 209,79 210,78 210,77 211,76 212,75 213,75 213,74 214,74 215,74 215,73 216,73 216,74 216,75 216,76 216,77 216,78 216,79 216,80 216,81 216,82 216,83 216,85 217,85 217,86 218,87 218,88 219,88 220,89 221,89 222,89 224,89 225,88 226,87 227,86 228,86 229,85 230,84 230,83 231,82 232,81 233,80 233,79 234,78 234,77 234,76 234,75 234,74 233,74 232,74 232,73 230,73 229,73 227,73 226,74 225,74 225,75 224,76 223,77 223,78 222,79 222,80 222,81 222,82 222,83 222,85 222,86 223,86" stroke="black" stroke-width="2" /><polyline fill="none" points="237,74 237,75 237,77 238,78 238,80 238,81 238,82 238,83 238,85 238,86 238,88 238,89 238,90 238,91 238,92 238,93 238,92 238,91 238,89 238,88 239,85 239,83 239,82 240,80 240,79 241,78 241,76 242,75 242,74 243,73 244,73 244,72 245,72 246,72 248,72 249,72 249,73 250,74 250,76 251,77 251,78 251,80 251,81 251,82 251,83 251,84 251,85 251,86 250,86" stroke="black" stroke-width="2" /></svg>