<?xml version="1.0" encoding="utf-8" ?>
<svg baseProfile="full" height="150" version="1.1" width="500" xmlns="http://www.w3.org/2000/svg" xmlns:ev="http://www.w3.org/2001/xml-events" xmlns:xlink="http://www.w3.org/1999/xlink"><defs /><polyline fill="none" points="200,81 199,82 199,83 199,84 199,85 199,86 199,87 199,88 199,90 199,91 200,92 201,93 202,93 203,94 204,94 206,94 207,93 208,92 209,91 210,90 211,88 212,87 212,85 213,84 214,83 214,81 214,80 214,79 214,78 214,76 214,74 213,73 212,72 211,72 210,71 209,71 208,71 207,72 206,73 205,74 204,76 204,77 203,79 203,81 202,82 202,84 202,86 202,87 202,88 202,90 202,92 202,93 203,94 204,94 204,95 205,95 206,95 208,95 209,94 210,93 211,92 212,91 213,90 214,89 215,87 215,86 216,84 217,83 217,81 218,79 218,77 219,75 219,73 219,72 220,70 220,69 220,68 220,67 220,66 220,65 221,65 221,66 221,67 221,69 221,70 221,72 221,74 221,76 221,78 221,80 221,82 221,85 221,87 221,88 221,92 221,93 221,94 222,95 223,95 224,95 225,94 225,93 226,92 227,92 227,91 227,90 228,90 229,90 230,90 231,90 231,91 232,91 232,92 233,92 233,93 234,93 235,93 236,93 237,93 238,93 238,92 239,91 240,90 240,89 240,87 241,86 241,85 241,83 240,81 240,80 239,79 239,78 238,78 237,77 236,77 235,77 234,77 233,78 233,79 232,80 231,81 231,82 230,83 230,84 230,85 230,86 230,87 230,88 231,88 232,88" stroke="black" stroke-width="2" /><polyline fill="none" points="250,92 250,91 251,90 251,89 252,87 252,86 253,85 253,83 253,82 254,80 254,78 254,76 254,74 254,72 254,71 254,70 254,68 254,65 254,63 254,61 253,60 253,59 253,58 253,57 252,56 251,58 251,59 251,61 251,63 251,65 251,67 250,69 250,71 250,72 250,73 250,75 250,77 250,79 250,83 251,84 251,85 251,86 251,88 252,88 252,89 252,90 253,90 253,91 253,90 253,89 252,88 251,87" stroke="black" stroke-width="2" /><polyline fill="none" points="249,81 250,81 251,81 254,80 255,80 256,80 257,80 258,79 259,79 260,79 260,78 261,78 262,78 263,78 263,79 264,81 264,82 264,83 264,85 265,86 265,87 266,88 266,89 267,90 268,91 269,91 270,91 271,91 272,90 273,89 274,88 274,87 275,86 275,85 275,84 275,83 276,83 276,85 275,86 275,87 275,88 275,90 275,91 275,93 275,94 275,95 275,97 275,98 275,100 274,101 274,102 274,103 274,104 273,105 273,106 273,107 272,107 271,108 270,108 269,108 267,108 266,108 266,107 265,107 264,106 263,106 262,105 262,104 261,103 260,102 260,101 260,100 260,99" stroke="black" stroke-width="2" /><polyline fill="none" points="286,80 285,80 284,80 283,81 283,82 282,83 282,84 281,86 281,87 281,88 281,89 281,90 281,92 282,92 282,93 283,93 284,93 285,93 287,93 288,92 289,91 290,90 291,89 292,87 294,86 294,84 295,83 296,81 297,79 297,77 297,75 298,73 298,72 298,70 298,68 298,67 298,66 298,65 298,64 298,63 298,62 297,62 297,63 297,64 296,65 296,67 296,68 296,70 296,72 296,74 296,76 296,77 296,78 296,80 296,81 296,83 296,84 296,86 296,87 296,88 296,89 296,90 296,91 296,90 297,89 297,88 298,87 299,86 299,85 300,85 301,86 301,87 301,89 301,90 301,91 301,92 302,92 302,93 303,93 304,93 305,92 306,92 307,91 307,90 308,89 309,88 310,87 310,88" stroke="black" stroke-width="2" /><polyline fill="none" points="327,77 325,77 325,78 324,78 323,79 322,79 322,80 321,80 321,81 320,82 319,83 319,84 318,85 318,86 318,87 318,88 318,89 318,90 318,91 318,92 319,92 320,92 321,92 323,92 324,91 325,90 326,89 327,88 328,87 328,86 329,86 330,85 330,84 331,84 332,83 333,83 333,82 334,82 334,81 335,81 336,81 337,81 337,82 337,83 337,84 336,85 335,86 335,87 334,88 333,89 332,90 331,91 331,92 330,92 330,93 329,93 328,93 329,93 330,93 331,93 332,93 333,93 334,93 336,92 337,92 338,92 338,91 339,91 341,92 342,93 343,93 343,94 344,94 345,94 346,94 347,94 348,94 350,94 351,94 352,93 353,92 354,91 354,90 355,90 355,89 355,88 355,87 356,87 356,86 356,85 356,84 355,83 354,83 353,83 351,83 350,84 349,85 348,86 347,87 346,88 345,89 344,90 344,91 343,92 343,93 344,93 345,93 346,93 347,93 349,93 350,93 352,93 352,94 353,94 354,95 355,96 356,97 356,98 357,98 358,98 358,97" stroke="black" stroke-width="2" /><polyline fill="none" points="372,82 371,82 370,82 369,82 367,82 366,82 366,83 365,83 364,83 364,84 364,85 364,86 365,86 366,86 367,87 368,88 369,89 370,90 371,91 371,92 371,93 371,94 370,95 369,95 368,96 367,96 366,96 365,97 364,97 363,97 362,97 361,98 360,98 360,99 360,100 359,101" stroke="black" stroke-width="2" /></svg>