<?xml version="1.0" encoding="utf-8" ?>
<svg baseProfile="full" height="150" version="1.1" width="500" xmlns="http://www.w3.org/2000/svg" xmlns:ev="http://www.w3.org/2001/xml-events" xmlns:xlink="http://www.w3.org/1999/xlink"><defs /><polyline fill="none" points="108,78 108,80 108,81 108,82 108,84 108,85 108,86 108,88 108,89 108,91 108,92 108,93 108,95 108,96 108,97 108,98 108,100 108,101 109,101 110,102 111,102 112,102 113,102 114,102 116,102 117,102 118,102 118,101 119,101 119,100" stroke="black" stroke-width="2" /><polyline fill="none" points="109,69 109,70 109,71 109,72 109,73 110,74" stroke="black" stroke-width="2" /><polyline fill="none" points="130,80 129,80 128,80 127,81 126,81 125,82 124,83 123,83 123,84 122,84 121,85 123,85 124,85 125,85 127,85 128,85 129,85 130,85 131,85 133,85 133,86 134,86 135,87 136,88 136,89 136,90 137,91 137,92 137,93 137,95 136,95 136,96 136,97 135,98 134,98 134,99 133,99 132,99 131,100 130,100 129,100 129,99 130,98 131,97 132,96 133,96 133,95 134,94 135,93 136,92 137,91 138,90 139,88 140,87 140,85 141,84 142,82 142,81 143,79 143,77 144,76 144,74 145,72 145,71 146,69 146,67 146,66 146,64 146,63 146,61 146,60 146,59 146,58 146,57 146,56 145,57 145,59 145,60 145,62 144,64 144,66 144,67 144,69 144,71 144,73 144,76 143,77 143,79 143,80 143,82 143,83 143,85 143,87 143,88 143,89 143,92 143,93 144,94 144,95" stroke="black" stroke-width="2" /><polyline fill="none" points="138,84 139,83 139,82 140,82 141,81 142,80 144,80 145,80 146,79 147,79 149,78 150,78 151,78 153,77 154,77 155,77 156,77 157,77 158,77" stroke="black" stroke-width="2" /><polyline fill="none" points="161,79 161,80 160,81 160,82 160,83 160,84 159,85 159,86 159,87 159,89 159,90 159,91 159,92 158,93 158,94 158,95 158,96 158,97 157,96 157,95 157,94 157,91 158,90 159,88 159,87 160,86 160,84 161,83 161,82 162,81 162,80 163,80 163,79 164,79 166,79 166,80 167,81 167,82 167,83 167,85 167,86 167,87 168,88 168,89 168,90 168,91 169,91 170,91 171,90 171,89 172,89 173,88 173,87 174,87 174,86 174,87 175,87 175,88 176,89 177,89 178,89 179,88 180,87 181,86 182,85 183,84 183,83 184,82 185,81 185,80 185,81 185,82 185,83 185,84 185,85 185,87 185,89 185,90 185,92 185,93 185,95 185,97 185,98 185,100 186,103 186,104 186,105 186,106 186,107 186,109 185,110 184,111 183,111 182,111 181,111 180,111 178,111 177,111 176,111 175,110 174,110 173,110 172,109 171,109 170,108 170,107 171,107 172,107" stroke="black" stroke-width="2" /></svg>