<?xml version="1.0" encoding="utf-8" ?>
<svg baseProfile="full" height="150" version="1.1" width="500" xmlns="http://www.w3.org/2000/svg" xmlns:ev="http://www.w3.org/2001/xml-events" xmlns:xlink="http://www.w3.org/1999/xlink"><defs /><polyline fill="none" points="140,79 140,80 140,81 139,84 139,85 139,86 139,88 139,90 139,92 139,94 139,96 139,100 139,101 140,102 140,103 140,104 141,105 142,106 143,106 144,106 145,105 146,104 147,103 148,102 148,101 149,100 150,99 150,98 151,97 151,96 151,95 151,94 152,94 153,95 153,96 154,97 154,98 155,99 156,100 156,101 157,101 158,102 159,102 160,102 161,101 162,101 162,100 163,99 164,97 164,96 164,95 164,93 164,92 164,91 164,90 164,87 164,86 164,85 163,84 163,83 162,82 161,82 161,81 160,81 159,81 158,81 158,82" stroke="black" stroke-width="2" /><polyline fill="none" points="174,94 174,96 174,97 174,99 174,101 175,102 175,104 175,105 176,107 176,108 176,109 176,110 177,111 177,112 177,113 177,114 177,115 177,116 177,115 177,114 176,113 176,112 175,110 175,109 174,107 174,105 174,103 174,101 174,100 174,99 174,97 174,96 174,92 174,91 174,89 175,88 175,86 176,85 176,84 177,83 178,82 179,81 180,81 180,80 181,80 182,80 183,80 184,81 185,82 186,83 186,84 187,85 187,86 187,87 188,88 188,89 188,91 188,92 188,94 188,95 187,96 187,97 186,97 185,98 184,98 183,99 182,99 181,99 180,99 179,99 178,99 177,99 176,99 175,99 174,98 174,97 175,96" stroke="black" stroke-width="2" /><polyline fill="none" points="195,86 195,87 195,89 195,90 196,91 196,92 196,94 196,95 197,96 197,97 197,98 197,99 198,100 198,101 198,102 198,103 198,102 197,101 197,100 196,99 196,98 195,97 195,96 195,95 194,94 194,93 194,92 194,91 195,90 196,89 197,88 198,88 199,87 200,87 200,86 201,86 202,85 203,85 203,84 204,84 205,84 205,83" stroke="black" stroke-width="2" /><polyline fill="none" points="206,88 206,89 206,90 207,91 207,93 207,94 207,95 208,96 208,97 209,97 209,98 210,98 210,99 211,99 212,99 213,99 214,99 215,99 216,99 217,99 218,99 219,98 220,98 220,97 221,97 221,96 221,95 222,94 222,93 222,92 223,92 223,91 223,90 223,89 223,88 223,86 223,85 223,84 222,83 221,82 221,81 220,81 220,80 219,80 218,80 217,80 216,80 215,80 214,80 213,80 213,81 212,81 212,82 211,83 210,84 210,85 209,86 209,88 209,89 208,90 208,91 208,92 208,93 208,95 208,96 208,97 208,98 208,99 208,100 209,100 210,101 211,101 213,101 214,100 215,100 216,99 218,98 219,98 220,97 221,97 222,97 222,96 223,96 224,96 225,96 225,97 225,98 225,99 225,100 226,101 226,102 227,102 227,103 228,103 229,103 230,103 231,102 232,101 233,100 233,99 233,98 234,97 234,96" stroke="black" stroke-width="2" /><polyline fill="none" points="237,87 237,88 236,89 236,90 236,91 236,93 236,94 236,95 236,96 236,97 236,100 236,101 236,102 237,103 237,104 238,104 239,104 241,104 242,104 242,103 243,102 244,101 244,100 245,100 245,99 245,98 246,97 246,96 246,95 246,96 247,97 247,98 247,99 248,99 248,100 249,100 250,101 251,101 252,101 253,101 254,100 255,99 255,98 256,97 256,95 257,94 257,93 257,92 257,91 257,90 257,89 257,88 257,86 257,85 257,84 256,84 256,83 255,83 255,82 254,82 253,82" stroke="black" stroke-width="2" /><polyline fill="none" points="262,87 261,87 261,88 261,89 261,90 261,91 261,92 261,93 261,95 261,96 261,98 261,99 262,100 262,101 262,102 262,101 262,100 262,99 262,97 262,96 262,95 262,94 262,93 262,92 262,90 262,89 262,88 263,87 264,86 265,86 267,86 267,87 268,88 268,89 269,90 269,92 269,93 269,94 270,95 270,96 270,97 271,98 271,99 272,99 272,100 273,100 275,100 276,100 277,99 278,98 279,97 279,96 280,95 280,94 281,94 281,93 281,92 281,91 282,91 282,92 283,93 283,94 284,95 285,96 285,97 286,97 286,98 287,98 287,99 288,99 289,99 289,98 290,98 290,97 290,96" stroke="black" stroke-width="2" /><polyline fill="none" points="281,74 280,74 280,73 280,74" stroke="black" stroke-width="2" /><polyline fill="none" points="290,84 291,85 292,86 293,86 294,87 295,88 296,88 297,88 298,88 299,88 300,88 301,88 302,88 303,88 303,87 304,87 304,86 305,86 305,85 305,84 305,83 306,83 306,82 306,81 306,80 306,79 305,78 304,78 303,77 302,77 301,77 299,77 298,78 298,79 297,80 296,80 295,82 294,83 294,84 293,85 293,87 292,88 292,90 292,91 292,92 292,94 293,95 294,96 295,97 296,98 297,98 299,98 300,98 301,98 303,98 304,98 305,98 306,97" stroke="black" stroke-width="2" /></svg>