<?xml version="1.0" encoding="utf-8" ?>
<svg baseProfile="full" height="150" version="1.1" width="500" xmlns="http://www.w3.org/2000/svg" xmlns:ev="http://www.w3.org/2001/xml-events" xmlns:xlink="http://www.w3.org/1999/xlink"><defs /><polyline fill="none" points="101,65 100,65 100,66 100,67 99,67 99,68 99,69 98,69 98,70 98,71 97,71 97,72 97,73 97,74 96,74 96,75 96,76 95,76 95,77 95,78 95,79 94,79 94,80 94,81 93,81 93,82 93,83 92,84 92,85 91,85 91,84 91,83 91,82 91,81 91,80 91,79 91,78 91,77 91,76 91,75 91,74 91,73 91,72 91,71 91,70 91,69 91,68 91,67 91,66 91,65 92,65 92,64 92,63 92,62 92,61 92,60 92,59 93,59 93,58 93,57 93,56 94,56 94,55 94,54 94,53 94,52 95,52 95,51 95,50 96,50 96,49 96,48 97,48 97,47 97,46 98,46 98,45 98,44 99,44 99,43 99,42 100,42 100,41 101,41 101,40 102,40 102,39 103,39 103,38 104,38 104,37 105,37 106,37 106,36 107,36 108,36 109,36 110,36 111,36 112,36 113,36 114,36 115,36 116,36 117,36 118,37 119,37 120,38 121,38 121,39 122,39 123,40 124,41 125,42 125,43 126,43 126,44 127,44 127,45 128,45 128,46 128,47 129,47 129,48 130,48 130,49 130,50 131,50 131,51 131,52 132,53 132,54 132,55 133,55 133,56 133,57 133,58 133,59 133,60 133,61 134,61 134,62 134,63 134,64 134,65 134,66 134,67 134,68 134,69 134,70 133,70 133,71 133,72 132,72 132,73 132,74 131,74 131,75 130,75 130,76 129,76 128,77 127,78 126,78 125,78 125,79 124,79 123,79 122,79 121,79 120,79 119,79 119,80 118,80 117,80 116,80 115,80 114,80 113,80 112,80 111,80 110,80 109,80 108,80 107,79 106,79 105,79 104,79 103,79 102,79 102,78 101,78 100,78 99,78 98,78 96,77 95,77 93,76 92,76 91,76 89,76 88,76 86,75 85,75 84,75 83,75 82,75 81,74 80,74 79,74 78,74 77,74 76,74 76,73 75,73 74,73 73,73 72,73 71,73 70,73 69,73 68,73 67,73 66,73 65,73 64,73 63,73 63,74 64,74 65,74 65,75 66,75 67,75 68,75 69,75 70,75 71,75 72,75 73,75 74,75 75,75 75,76 76,76" stroke="black" stroke-width="2" /><polyline fill="none" points="106,76 106,77 106,78 107,78 107,79 107,80 107,81 108,82 108,83 109,83 109,84 109,85 110,85 110,86 111,86 111,87 112,87 112,88 113,88 114,88 114,89 115,89 116,89 117,90 118,90 119,90 120,90 121,90 122,90 123,90 124,90 125,90 126,90 127,90 128,90 129,90 130,90 131,90 132,90 133,90 134,90 135,90 136,89 137,89 138,89 138,88 139,88 140,88 141,88 141,87 142,87 143,87 143,86 144,86 144,85 145,85 145,84 145,83 146,83 146,82 146,81 146,80 145,80 145,79 144,79 144,78 143,78 142,78 141,78 141,77 140,77 139,77 138,77 138,76 137,76 136,76 135,76 134,76 133,76 132,75 131,75 130,75 129,75 128,75 127,75 126,75 125,75 124,75 123,75 122,75 121,75 120,75 119,75 118,75 118,76 117,76 116,76 115,76 115,77 114,77 113,78 112,78 112,79 113,79 114,79 115,79 116,79" stroke="black" stroke-width="2" /><polyline fill="none" points="152,77 152,78 151,78 151,79 150,79 150,80 149,80 149,81 148,82 147,82 147,83 147,84 146,84 145,85 144,85 144,86 143,86 144,86 145,86 146,86 147,86 148,86 149,86 150,86 151,86 152,86 153,86 154,86 154,85 155,85 156,85 157,85 158,85 159,85 160,85 161,85 161,84 162,84 163,84 164,84 165,84 166,84 167,84 168,84 169,84 170,84 169,84 168,84 167,84 167,85 166,85 167,85 168,85 169,85 170,85 171,85 172,85 173,85 174,85 175,85 176,85 177,85 178,85 179,85 180,85 180,86 180,87 179,87 179,88 178,88 177,88 178,88 179,88 180,88 181,88 182,88 183,88" stroke="black" stroke-width="2" /><polyline fill="none" points="191,87 191,88 191,89 191,90 191,91" stroke="black" stroke-width="2" /><polyline fill="none" points="205,77 205,78 205,79 205,80 205,81 205,82 205,83 205,84 205,85 205,86 205,87 205,88 205,89 205,90 204,90 204,91 204,90 205,90 205,89 206,89 207,89 207,88 208,88 209,88 209,87 210,87 211,87 212,87 212,86 213,86 214,86 215,86 215,85 215,86 215,87 215,88 215,89 215,90 216,90 217,90" stroke="black" stroke-width="2" /><polyline fill="none" points="227,88 227,89 227,90 227,91 227,92 227,93 226,94 226,95 226,96 226,97 226,98 226,99 226,100 226,101 227,101" stroke="black" stroke-width="2" /><polyline fill="none" points="228,75 229,75 230,75" stroke="black" stroke-width="2" /><polyline fill="none" points="235,96 235,95 236,95 236,94 237,94 237,93 238,93 238,92 239,92 239,91 240,91 240,90 241,90 241,89 242,89 242,88 243,88 243,87 244,87 244,86 244,85 245,85 245,84 246,84 246,83 247,83 247,82 248,81 249,81 249,80 249,79 250,79 250,78 251,78 251,77 252,77 252,76 253,76 253,75 254,75 254,74 255,74 255,73 256,72 256,71 257,71 257,70 258,70 258,69 259,68 260,68 260,67 261,67 261,66 261,65 262,65 262,64 263,64 263,63 264,63 264,62 265,62 266,61 266,60 267,60 267,59 268,59 268,58 269,58 269,57 270,57 270,56 271,56 271,55 272,55 272,54 273,54 273,53 274,53 274,52 275,52 276,51 277,51 277,50 277,49 278,49 279,48 279,47 280,47 280,46 281,46 281,45 282,45 282,44 283,44 283,43 282,43 281,43 281,44 280,44 280,45 279,45 278,45 278,46 277,46 277,47 276,48 275,49 274,49 274,50 274,51 273,51 273,52 272,53 271,53 271,54 270,54 270,55 269,55 268,56 267,57 267,58 266,59 265,60 264,61 263,61 262,63 261,64 261,65 260,66 260,67 259,67 259,68 258,69 257,71 256,71 255,73 255,74 254,76 253,77 253,78 252,78 252,79 251,80 251,81 250,81 250,83 249,83 249,84 249,85 248,86 248,87 248,88 248,89 247,89 247,90 247,91 247,92 248,92 248,93 249,93 250,93 251,93 252,93 253,93 254,93 255,93 256,93 257,93 258,93 259,93 260,93 261,93 262,93 263,93 264,93 264,92 265,92 266,92 267,92 268,92 268,91 269,91 270,91 271,91 271,90 272,90 273,90 274,90 274,89 275,89 276,89 276,88 277,88 277,87 276,87 275,87 274,87 273,87 272,87 271,87 271,88 270,88 270,89 269,89 268,89 268,90 267,90 267,91 267,92 266,92 266,93 266,94 266,95 265,95 265,96 265,97 265,98 265,99 265,100 265,101 266,101 266,102 267,103 268,103 268,104 269,104 269,105 270,105 271,105 272,106 273,106 273,107 274,107 275,107 275,108 276,108" stroke="black" stroke-width="2" /></svg>